<svg xmlns="http://www.w3.org/2000/svg" viewBox="0 0 1299.55 413.51"><defs><style>.cls-1{isolation:isolate;}.cls-2,.cls-4,.cls-5{fill:#292b40;}.cls-2{opacity:0.15;}.cls-3{fill:#fff;}.cls-4{stroke:#292b40;stroke-miterlimit:10;stroke-width:3.31px;}.cls-6{fill:#7fb8e5;}.cls-7{opacity:0.1;mix-blend-mode:darken;}</style></defs><title>LogoCN</title><g class="cls-1"><g id="Calque_2" data-name="Calque 2"><g id="Calque_1-2" data-name="Calque 1"><path class="cls-2" d="M395.23,77.81l-.05-.19c-5.86-21.35-28-43.44-49.26-49.24l-.17,0a530,530,0,0,0-268.93,0l-.19,0c-21.35,5.86-43.44,28-49.24,49.27l0,.16a530.28,530.28,0,0,0-.05,268.88l.05.19c5.86,21.35,27.95,43.44,49.26,49.24l.16,0a534.71,534.71,0,0,0,134.47,17.35,534.71,534.71,0,0,0,134.47-17.35l.15,0c21.26-5.78,43.38-27.83,49.3-49.15l.07-.23A530,530,0,0,0,395.23,77.81Z"/><path class="cls-3" d="M385.23,66.81l-.05-.19c-5.86-21.35-28-43.44-49.26-49.24l-.17,0a530,530,0,0,0-268.93,0l-.19,0c-21.35,5.86-43.44,28-49.24,49.27l0,.16a530.28,530.28,0,0,0-.05,268.88l.05.19c5.86,21.35,27.95,43.44,49.26,49.24l.16,0a534.71,534.71,0,0,0,134.47,17.35,534.71,534.71,0,0,0,134.47-17.35l.15,0c21.26-5.78,43.38-27.83,49.3-49.15l.07-.23A530,530,0,0,0,385.23,66.81Z"/><path class="cls-4" d="M604.05,152.6a15.39,15.39,0,0,1,3.38.19c4.3.77,10.19,3.44,10.52,9.42a4,4,0,0,1-3.89,4.22,3.93,3.93,0,0,1-3.91-2.91c-.46-1.6-2.8-3.1-5.66-2.94-11.1.61-15,9.08-14.36,20.79.61,11.1,10.52,18.55,20.36,20.14a23.77,23.77,0,0,0,5,.22,35.43,35.43,0,0,0,8.8-1.36,68.38,68.38,0,0,0,13-5.59,4,4,0,0,1,1.6-.46,4,4,0,0,1,4.21,3.89,3.86,3.86,0,0,1-2.17,3.62A77.27,77.27,0,0,1,626.47,208a43.85,43.85,0,0,1-10.53,1.71,32.72,32.72,0,0,1-6.9-.37c-12.49-2.19-26-11.57-26.89-27.53C581.29,166.23,588.59,153.45,604.05,152.6Z"/><path class="cls-4" d="M635.08,198.53a4.12,4.12,0,0,1,1.8-3.6,95.65,95.65,0,0,0,18-15c-6.89-16.12-10.47-40.43-12.47-76.82l-.05-.88c-1.55-28.16-2.72-51.6,17.1-52.7,17.33-1,25.19,30.62,26.06,46.45,2,37.15-4,64.36-21.19,85.31,6.42,12,14.57,17.08,31.4,16.15a4,4,0,0,1,.44,8c-18.33,1-29.94-5.48-37.5-17.94a110.46,110.46,0,0,1-17.47,14.21,3.63,3.63,0,0,1-2,.61A4,4,0,0,1,635.08,198.53ZM677.59,96.42c-1-17.57-10.66-39.29-17.64-38.91-10.09.56-11.29,12.87-9.52,45.16,1.81,32.9,5.19,55.72,10.37,70.31C674.4,154.36,679.47,130.45,677.59,96.42Z"/><path class="cls-4" d="M753.12,144.4a4.09,4.09,0,0,1,4.2,3.65c.08,1.49.29,3,.37,4.48,3.28,34.57,4.64,41.25,21.1,40.34a4,4,0,0,1,.44,8c-14,.77-20.64-4.74-24.38-15.91-3.51,11.32-10.4,17.82-22.24,18.48a17.52,17.52,0,0,1-14.84-6.06c-5.89,4.2-12.46,7.56-21.56,8.06a4,4,0,0,1-.43-8c7.72-.42,12.82-3.21,17.75-6.85a45,45,0,0,1-3.31-14.7c-1.07-19.32,10.37-29.57,22.59-30.24a27,27,0,0,1,16.61,4.21l0-.25,0-.5,0-.5A4,4,0,0,1,753.12,144.4Zm-4.45,16.88c-2.58-6-8.82-8-15.42-7.66-7.73.43-15.92,6.13-15.06,21.83.64,11.47,5.38,20.46,14,20,11.72-.65,17.28-8.7,17.58-32.72A3.86,3.86,0,0,1,748.67,161.28Z"/><path class="cls-4" d="M832.27,135.55c.13,2.49-1.09,5.31-2.43,8.26,6.51,4.64,18.89,11.59,19.75,27.17a31.57,31.57,0,0,1-2,13.86,26.85,26.85,0,0,0,4.51.13,23.8,23.8,0,0,0,9.49-2.53,3.48,3.48,0,0,1,1.6-.46,4,4,0,0,1,2,7.51,31.26,31.26,0,0,1-12.81,3.58,24.35,24.35,0,0,1-9.7-1.34c-5.36,4.8-12.65,6.32-20.38,6.75A17.52,17.52,0,0,1,804,184.61c-7.53,8.67-15.89,15.75-24.74,16.24a4,4,0,0,1-4.21-3.77,3.94,3.94,0,0,1,3.77-4.21c6.11-.33,15.67-8.36,24.3-19.71a187,187,0,0,0,17-27.19,9.58,9.58,0,0,1-2.31-5.5c-.26-4.86,2.31-10.38,7.67-10.67A6.29,6.29,0,0,1,832.27,135.55ZM812.43,175a3.47,3.47,0,0,1-.39,1.9,7.46,7.46,0,0,0-.55,3.65c.42,7.61,5.43,10.21,10.42,9.93,13.21-.72,20.55-3.63,19.7-19.08C841,161,833.39,156,826.37,151.13a184.84,184.84,0,0,1-14.11,23A2.2,2.2,0,0,1,812.43,175Z"/><path class="cls-4" d="M882,176.69a13.23,13.23,0,0,1,.09-2.88c-5,6.41-10.59,12-16.64,15.67a3.21,3.21,0,0,1-1.84.6,4,4,0,0,1-2.28-7.37c11.24-7,22.34-23.49,29.81-39.9a9.08,9.08,0,0,1-3.5-6.81c-.22-4.11,2-10.74,8.52-11.09,3.74-.21,7.12,2.23,7.34,6.22.19,3.49-1.19,5.57-2.07,7.86,11.58,6,23.54,16.59,24.23,29,.27,5-.24,9.27-1.68,12.72a25.81,25.81,0,0,0,14.49-2.55,3.51,3.51,0,0,1,1.6-.46,4,4,0,0,1,2,7.51,32.13,32.13,0,0,1-13.3,3.74,25.83,25.83,0,0,1-9.57-1.23c-4.65,4.13-11.29,6-19.64,6.46C889.53,194.78,882.62,187.41,882,176.69Zm17.16,9.56c10.22-.56,16.62-2.41,18.14-11a25.93,25.93,0,0,0,.38-6.77c-.41-7.48-9.17-16.75-19.34-22.06A171,171,0,0,1,887,166.92a4.14,4.14,0,0,1,4,3.78,3.45,3.45,0,0,1-.39,1.9,7.48,7.48,0,0,0-.55,3.66C890.38,183,893.33,186.57,899.19,186.25Z"/><path class="cls-4" d="M951.24,180.39c-3,1.79-5.94,3.33-9.1,4.87a3.86,3.86,0,0,1-1.6.47,4.12,4.12,0,0,1-4.22-3.9,3.91,3.91,0,0,1,2.18-3.62c2.8-1.4,5.34-2.79,7.77-4.17A45.39,45.39,0,0,1,940,153.38c-.61-11.1,6.08-21.22,17.67-21.85,10-.55,16.18,7.73,16.61,15.58.68,12.34-6.56,21.62-16.17,28.77A22.24,22.24,0,0,0,974.46,182a27.69,27.69,0,0,0,9.41-1.77c3.42-1.44,7.16-3.9,11.64-8.77a3.76,3.76,0,0,1,2.56-1.26,4.16,4.16,0,0,1,4.34,3.88,3.55,3.55,0,0,1-1.1,2.81,40.64,40.64,0,0,1-14,10.53A35.5,35.5,0,0,1,974.9,190C964.55,190.53,956.68,186,951.24,180.39Zm15.08-32.84c-.26-4.61-3.46-8.31-8.2-8.05-6.35.35-10.57,5.59-10.14,13.44a36.7,36.7,0,0,0,5,16.72C962,163,966.8,156.28,966.32,147.55Z"/><path class="cls-5" d="M1217.76,310.39a2.61,2.61,0,0,1,2.64,2.64,2.64,2.64,0,1,1-5.27,0A2.61,2.61,0,0,1,1217.76,310.39Z"/><path class="cls-5" d="M1246.2,366.64h-.13c-2.88,0-4.52-2.95-5.65-6.4-2.88-9-3.14-25.87-3.14-36.67v-7.28c0-2.57,0-5.14-.06-7.72-3,2.39-6,4.52-9.29,6.78a2.32,2.32,0,0,1-1.13.32,2,2,0,0,1-2-2,2.2,2.2,0,0,1,.88-1.7,124.11,124.11,0,0,0,11.55-8.54c-.12-7.4-.25-14.69-.25-22.15,0-8.54.19-17.2.69-26.06.44-6.59,1.26-18.26,9.54-18.26,10.36,0,12.62,14.69,12.62,22.59,0,21.91-6.34,34.72-18.58,45.7V307a3.74,3.74,0,0,1,1.44-.37c2.89,0,5.09,2.7,6.59,5.21a67.72,67.72,0,0,0,8.17.44,2,2,0,0,1,0,4q-3.21,0-6-.18c3.51,8.47,5.34,19.39,5.34,31.51C1256.75,357.35,1254.74,366.64,1246.2,366.64Zm9.6-107.1c0-8.6-3-18.58-8.6-18.58-3.32,0-5,6.47-5.52,14.5-.5,8.73-.69,17.33-.69,25.81,0,6.15.12,12.49.19,18.51C1251,290.05,1255.8,278.94,1255.8,259.54Zm-14.5,56.75v2.45c0,10.36.13,30.76,2.58,39.8.88,3,1.88,4.08,2.32,4.08,2.82-.06,4.64-1.51,5.71-6a42.38,42.38,0,0,0,.82-9,92.41,92.41,0,0,0-3-23.67,41.33,41.33,0,0,0-3.08-8.41,11.64,11.64,0,0,1-5.4-2.2Z"/><path class="cls-5" d="M1299.55,311.33a2.1,2.1,0,0,1-.81,1.64,17.13,17.13,0,0,1-8.92,3.32c-7.28,0-7.84-8.22-8-13.93-.13-3.2-.06-6.28-.69-8.35-.5-1.89-1.45-2.89-3.89-2.89-1.39,0-4.15.38-5.9.5-.76,13.56-4.52,24.67-13.88,24.67a2,2,0,1,1,0-4c5.28,0,9.17-7.16,9.92-21.22-2.07-1.07-2.57-3.2-2.57-5.4,0-1.76,1-4.21,3.39-4.21,2.63,0,3.32,2.77,3.32,4.71v1.45a55,55,0,0,1,5.72-.51,7.57,7.57,0,0,1,7.78,5.72c.94,3.13.75,6.84.82,9.41.18,6.78,1.19,10,4,10a15.48,15.48,0,0,0,6.53-2.58,2.1,2.1,0,0,1,1.2-.37A2.05,2.05,0,0,1,1299.55,311.33Z"/><path id="path18-4-4" class="cls-6" d="M529.07,244.57a35.54,35.54,0,0,0-49.47,0,33.39,33.39,0,0,0-10.08,24.67V286a10.9,10.9,0,0,0,10.87,10.87h0A10.9,10.9,0,0,0,491.27,286V269.3a12.54,12.54,0,0,1,3.78-9.22,13.29,13.29,0,0,1,18.51.06,12.25,12.25,0,0,1,3.78,9.1v36.1c0,5.43,3.73,10.44,9,11.29a10.86,10.86,0,0,0,12.7-10.75V269.24a33.38,33.38,0,0,0-10-24.67Z"/><path id="path18-4-8-4-1" class="cls-6" d="M612,308.41a34.78,34.78,0,0,1-48.42,0,32.69,32.69,0,0,1-9.86-24.15V267.82a10.67,10.67,0,0,1,10.64-10.64h0A10.67,10.67,0,0,1,575,267.82V284.2a12.27,12.27,0,0,0,3.7,9,13,13,0,0,0,18.12-.06,12,12,0,0,0,3.7-8.91V248.93c0-5.32,3.65-10.22,8.85-11.05a10.63,10.63,0,0,1,12.43,10.52v35.86a32.77,32.77,0,0,1-9.8,24.15Z"/><path id="path14-7-72" class="cls-6" d="M728.63,265.27a12,12,0,0,1,2.26,7.33v16.49A10.92,10.92,0,0,0,741.82,300h0a10.92,10.92,0,0,0,10.94-10.93V272.66a34.93,34.93,0,0,0-55.52-28.22,3.62,3.62,0,0,1-4.29,0,34.82,34.82,0,0,0-55.62,28.21v36.89a10.51,10.51,0,0,0,3.11,7.88,9.73,9.73,0,0,0,4.52,2.4,3.65,3.65,0,0,0,.88.1h5a3.55,3.55,0,0,0,.86-.1,9.08,9.08,0,0,0,4.46-2.4,10.62,10.62,0,0,0,3-7.88V272.6a12.68,12.68,0,0,1,3.79-9.28,12.88,12.88,0,0,1,9.34-3.73,12.68,12.68,0,0,1,9.23,3.85,12.4,12.4,0,0,1,3.9,9.22v36.95a10.61,10.61,0,0,0,3,7.88,9.5,9.5,0,0,0,4.45,2.4,3.71,3.71,0,0,0,.88.1h5a3.55,3.55,0,0,0,.86-.1,9.5,9.5,0,0,0,4.52-2.4,10.47,10.47,0,0,0,3.12-7.88V270.53c0-5.74,4.46-10.81,10.26-10.87h.12c4.52-.07,8.06,1.83,10.93,5.61Z"/><path id="path24-4-4-7-3-8" class="cls-6" d="M886.62,273v37.27a10.34,10.34,0,0,1-3.12,7.94,11.06,11.06,0,0,1-8,3,10.67,10.67,0,0,1-7.94-3,10.84,10.84,0,0,1-3-7.94V273a34.84,34.84,0,0,1,35.37-35.27,10.45,10.45,0,0,1,7.84,3.12,10.59,10.59,0,0,1,3.11,7.83c0,6.74-3.72,10.45-11.25,11.16a14.79,14.79,0,0,0-9.24,4,12.22,12.22,0,0,0-3.72,9.14Z"/><g id="g3656-3-5"><path id="path6-7-8-7-7-7" class="cls-6" d="M933.9,322.65h0c-5.92,0-10.76-5.54-10.76-8.36v-43c0-2.81,4.84-9,10.76-9h0c5.92,0,10.76,6.15,10.76,9v42.44C944.66,316.58,939.82,322.65,933.9,322.65Z"/><ellipse id="path3273-8-2" class="cls-6" cx="933.9" cy="249.01" rx="10.75" ry="11.28"/></g><path class="cls-6" d="M1038.71,279.21c0-.15,0-.3,0-.45s0-.41,0-.62a40.43,40.43,0,0,0-40.41-40.41h0a40.41,40.41,0,1,0,13.78,78.39,5.19,5.19,0,0,1,7,4.86v39.79c0,5.92,4.42,10.76,9.82,10.76s9.83-4.84,9.83-10.76V279.62C1038.73,279.48,1038.72,279.35,1038.71,279.21Zm-40.4,19.49a20.62,20.62,0,1,1,20.62-20.62A20.55,20.55,0,0,1,998.31,298.7Z"/><path id="path18-4-8-4-1-2" data-name="path18-4-8-4-1" class="cls-6" d="M1112.78,308.41a34.78,34.78,0,0,1-48.42,0,32.65,32.65,0,0,1-9.86-24.15V267.82a10.67,10.67,0,0,1,10.64-10.64h0a10.67,10.67,0,0,1,10.64,10.64V284.2a12.27,12.27,0,0,0,3.7,9,13,13,0,0,0,18.11-.06,12,12,0,0,0,3.71-8.91V248.93c0-5.32,3.65-10.22,8.85-11.05a10.63,10.63,0,0,1,12.43,10.52v35.86a32.77,32.77,0,0,1-9.8,24.15Z"/><path class="cls-6" d="M849.61,269.24a41.84,41.84,0,0,0-81.16,0,41.52,41.52,0,0,0-1.26,10.16A41.8,41.8,0,0,0,809,321.22h0a41.63,41.63,0,0,0,19.82-5,10,10,0,0,0,2.09-16l-.34-.32a10,10,0,0,0-11.52-1.56,21.47,21.47,0,0,1-25.41-4,2.8,2.8,0,0,1,2-4.76h45.26a10.1,10.1,0,0,0,10.06-10h0A42.06,42.06,0,0,0,849.61,269.24Zm-55.11,0a2.25,2.25,0,0,1-1.74-3.67,21.43,21.43,0,0,1,32.06-.48,2.48,2.48,0,0,1-1.84,4.15Z"/><rect class="cls-6" x="793.06" y="235.5" width="31.6" height="11.98" rx="5.99" transform="translate(-34.42 279.53) rotate(-19.21)"/><path class="cls-6" d="M1219.59,266.23a41.84,41.84,0,0,0-81.16,0,41.81,41.81,0,0,0,40.56,52h0a41.64,41.64,0,0,0,19.82-5,10,10,0,0,0,2.09-16l-.34-.33a10,10,0,0,0-11.52-1.55,21.51,21.51,0,0,1-10,2.48,21.29,21.29,0,0,1-15.36-6.47,2.8,2.8,0,0,1,2-4.77h45.26a10.1,10.1,0,0,0,10.06-10h0A42.06,42.06,0,0,0,1219.59,266.23Zm-55.11,0a2.24,2.24,0,0,1-1.74-3.66,21.44,21.44,0,0,1,32.06-.49,2.48,2.48,0,0,1-1.84,4.15Z"/><path class="cls-6" d="M67.46,163.92a46,46,0,0,1,90.44-8.07,11.55,11.55,0,0,0,6.12,7.62L242,201a9.32,9.32,0,0,0,8.13,0,45.67,45.67,0,0,1,20.21-4.69h0a7,7,0,0,0,5.69-2.91l86.41-120.4a17.85,17.85,0,0,0-.63-21.75c-7.93-9.58-18.75-17.51-29-20.3Q201.91-3,71,30.89C54.2,35.51,35.88,53.83,31.31,70.62Q8,160.49,16.72,250.39a4.34,4.34,0,0,0,7.91,2l42.78-62.7a11.77,11.77,0,0,0,1.69-9.85A45.86,45.86,0,0,1,67.46,163.92Z"/><path class="cls-6" d="M315.06,231.46a46,46,0,1,1-89.68,20.48,8.17,8.17,0,0,0-4.49-5.63l-79.3-38.15a8.28,8.28,0,0,0-7.36.06,45.71,45.71,0,0,1-20.89,5h0a2.72,2.72,0,0,0-2.25,1.17L32.18,330a3.9,3.9,0,0,0-.65,2.39,6.87,6.87,0,0,0,.38,2c5.49,16.23,23,33.24,39.08,37.62q130.89,33.92,261.76,0c16.8-4.57,35.11-22.88,39.78-39.67q25.25-97.44,12.9-194.85a3.66,3.66,0,0,0-6.6-1.67L317,222A11.59,11.59,0,0,0,315.06,231.46Z"/><path class="cls-7" d="M388.31,167.18q-1-15.06-3-30.12a11.2,11.2,0,0,1-.56-1.09c-.07-.17-.13-.36-.2-.56a2.94,2.94,0,0,0-.3-.31l-.16,0a.89.89,0,0,1-.49-.35l-.09-.05a6.86,6.86,0,0,0-1.82-.43,3.09,3.09,0,0,0-2.15.85c-.46.44-1.17-.26-.71-.71a4,4,0,0,1,1.48-.88.67.67,0,0,1-.24-.47,1.73,1.73,0,0,1,.28-1s.06,0,.09-.08a.5.5,0,0,1,.37-.57.72.72,0,0,1,.18-.21,1.71,1.71,0,0,1,.65-.24,4.4,4.4,0,0,1,.45-.3,1.89,1.89,0,0,1,.36-.16c.16-.18.3-.4.46-.58a3.17,3.17,0,0,0,.36-.46,3.36,3.36,0,0,0,.2-.43,1,1,0,0,1,.67-.67c-.42-2.91-.86-5.83-1.33-8.74L273.14,228.44c-1.24,0-14.24-1.49-15.48-1.49-5.41,0-11.3-7.22-15.48-6.65l-71.84-30.05-11.92,5.25,72.82,26c-2.35,6-3.2,14-2.86,24.73.81,25,21.15,45.46,46.21,45.42,29.16-.06,50.63-21,50.63-50.14a35.58,35.58,0,0,0-1.81-11.68,5.32,5.32,0,0,1,1.48-5.68Z"/><path class="cls-7" d="M152.64,159.53c-9-23.16-6.57-22.62-38.06-26.21-28.19-3.22-37.84,7.25-37.84,35.61,0,21.58,4.43,40.31,19,48L33.34,325.25c.37,1.53-.72,3.11-1.46,4.8a.56.56,0,0,1,0,.4,5.64,5.64,0,0,0-.31,1.92,2.88,2.88,0,0,0-.05.59,2.54,2.54,0,0,0,.07.47c0,.13.05.26.07.38a.84.84,0,0,1,.06.14,8.77,8.77,0,0,0,.55,1.56c.2.48.37,1,.6,1.46a13.1,13.1,0,0,1,.64,1.49l.08.29a.81.81,0,0,1,.17.24c.07.18.21.31.27.51a1.31,1.31,0,0,1,.06.27c1.33,2.21,3,4.58,4.74,7.83l.71,1a71.27,71.27,0,0,0,10.78,11.68l66.13-139.71C142.1,217.82,162.47,184.79,152.64,159.53Z"/><path class="cls-3" d="M113.34,213.25A45.69,45.69,0,0,0,136.49,207a2.55,2.55,0,0,1,2.4-.12l84.56,40.68a2.68,2.68,0,0,1,1.48,2,46,46,0,1,0,90.13-18.1,11.07,11.07,0,0,1,1.69-9.11l67.44-94q-1.51-10.45-3.46-20.91l-106.21,148L116.7,179.55,26.41,311.88q2.14,9.87,4.68,19.75l80.11-117.4a2.24,2.24,0,0,1,1.9-1Z"/><path class="cls-3" d="M268.06,230.16,375.1,81q-1.23-5.2-2.57-10.4a42.29,42.29,0,0,0-3-7.62L274.48,195.49a2,2,0,0,1-1.77.83c-.78,0-1.57-.07-2.37-.07a45.73,45.73,0,0,0-22.9,6.12,2.5,2.5,0,0,1-2.33.11l-85-40.91a2.47,2.47,0,0,1-1.36-1.84,46,46,0,1,0-88.55,23.35,3.56,3.56,0,0,1-.43,3.21L18,262.11q1.32,11,3.14,22l88.75-130.06Z"/><path class="cls-5" d="M376.29,113.66a17.65,17.65,0,0,0,3-13.77c-.29-1.41-.58-2.83-.88-4.25a6.69,6.69,0,0,0-12-2.51L283.82,208.2a8.67,8.67,0,0,1-7.14,3.56,3.2,3.2,0,0,1-2.63,1.22,2.71,2.71,0,0,1-.4,0,3.41,3.41,0,0,1-.79,2c-1.57,1.92-1.38,3.27-1.7,5.57a7.86,7.86,0,0,1-.25,1.17c.17.31.33.63.49.94,4.33.19,4.27,7-.18,7a3.44,3.44,0,0,1-1.69-.43,4.38,4.38,0,0,1-3.52.18,3.4,3.4,0,0,1-5.41-1,3.88,3.88,0,0,1-.58-2.28,2.73,2.73,0,0,1-.88-1.55,8.83,8.83,0,0,0-1-2.13c-.37-.79-.52-1.77-1-2.51-.61-1-1.5-.91-2.76-.93a3.19,3.19,0,0,1-2.73-1.4l-.32.23a7.2,7.2,0,0,1-7.52.74L147.4,172.12a5.4,5.4,0,0,1-3.06-4.87,31,31,0,0,0-15.22-26.66c.93,5.56-2.24,11.87-9.5,11.75-3.28-.06-7-.77-10.17.42-3.34,1.26-6.37,3.71-9.55,5.32-6.07,3.08-11.77-.32-14.07-5.07A30.51,30.51,0,0,0,82.4,165.3a30.84,30.84,0,0,0,3.27,15.92,8.87,8.87,0,0,1-.5,9.06L24.65,279a15.57,15.57,0,0,0-2.46,11.47q.61,3.45,1.26,6.92a6.23,6.23,0,0,0,11.26,2.34l66.77-97.84a8.89,8.89,0,0,1,8.39-3.8,31.05,31.05,0,0,0,21.75-5.79,9.24,9.24,0,0,1,9.49-1L236,236.94a5.86,5.86,0,0,1,3.32,5.28v0A31,31,0,1,0,298.81,230,10.25,10.25,0,0,1,300,220Zm-273.62,51a11,11,0,0,1,4.34-6.36Zm11.9-8.3a11,11,0,0,1,6.54,3.14Zm147.48,93.13,7.84,3.77A11,11,0,0,1,262.05,249.46Z"/><ellipse class="cls-5" cx="126.19" cy="146.4" rx="6.5" ry="6.48"/><ellipse class="cls-5" cx="91.63" cy="155.89" rx="6.5" ry="6.48"/><ellipse class="cls-5" cx="255.36" cy="222.86" rx="6.5" ry="6.48"/><ellipse class="cls-5" cx="276.3" cy="218.37" rx="6.58" ry="6.62"/><circle class="cls-3" cx="270.34" cy="242.25" r="18"/><circle class="cls-3" cx="113.34" cy="167.25" r="18"/></g></g></g></svg>